{
  "accessors": [
    {
      "bufferView": 1,
      "componentType": 5126,
      "count": 6307,
      "max": [
        71.504241943359375,
        733.92669677734375,
        41.940498352050781
      ],
      "min": [
        -71.50433349609375,
        2.3998310565948486,
        -82.5660400390625
      ],
      "type": "VEC3"
    },
    {
      "bufferView": 1,
      "byteOffset": 75684,
      "componentType": 5126,
      "count": 6307,
      "max": [
        1,
        1,
        1
      ],
      "min": [
        -1,
        -1,
        -1
      ],
      "type": "VEC3"
    },
    {
      "bufferView": 0,
      "componentType": 5125,
      "count": 20379,
      "max": [
        6306
      ],
      "min": [
        0
      ],
      "type": "SCALAR"
    },
    {
      "bufferView": 1,
      "byteOffset": 151368,
      "componentType": 5126,
      "count": 65532,
      "max": [
        72.051422119140625,
        617.83294677734375,
        42.320472717285156
      ],
      "min": [
        -72.051498413085938,
        3.0505449771881104,
        -83.197845458984375
      ],
      "type": "VEC3"
    },
    {
      "bufferView": 1,
      "byteOffset": 937752,
      "componentType": 5126,
      "count": 65532,
      "max": [
        1,
        1,
        1
      ],
      "min": [
        -1,
        -1,
        -1
      ],
      "type": "VEC3"
    },
    {
      "bufferView": 0,
      "byteOffset": 81516,
      "componentType": 5125,
      "count": 190857,
      "max": [
        65531
      ],
      "min": [
        0
      ],
      "type": "SCALAR"
    },
    {
      "bufferView": 1,
      "byteOffset": 1724136,
      "componentType": 5126,
      "count": 65534,
      "max": [
        9.0149192810058594,
        635.98809814453125,
        2.3408470153808594
      ],
      "min": [
        -9.0148305892944336,
        20.225683212280273,
        -46.630023956298828
      ],
      "type": "VEC3"
    },
    {
      "bufferView": 1,
      "byteOffset": 2510544,
      "componentType": 5126,
      "count": 65534,
      "max": [
        0.9994586706161499,
        1,
        0.99878913164138794
      ],
      "min": [
        -0.99946272373199463,
        -1,
        -0.99999189376831055
      ],
      "type": "VEC3"
    },
    {
      "bufferView": 0,
      "byteOffset": 844944,
      "componentType": 5125,
      "count": 194376,
      "max": [
        65533
      ],
      "min": [
        0
      ],
      "type": "SCALAR"
    },
    {
      "bufferView": 1,
      "byteOffset": 3296952,
      "componentType": 5126,
      "count": 65532,
      "max": [
        33.888820648193359,
        650.5123291015625,
        26.797784805297852
      ],
      "min": [
        -40.471767425537109,
        20.225683212280273,
        -46.160133361816406
      ],
      "type": "VEC3"
    },
    {
      "bufferView": 1,
      "byteOffset": 4083336,
      "componentType": 5126,
      "count": 65532,
      "max": [
        0.9999847412109375,
        1,
        0.99981749057769775
      ],
      "min": [
        -0.9999847412109375,
        -1,
        -1
      ],
      "type": "VEC3"
    },
    {
      "bufferView": 0,
      "byteOffset": 1622448,
      "componentType": 5125,
      "count": 192171,
      "max": [
        65531
      ],
      "min": [
        0
      ],
      "type": "SCALAR"
    },
    {
      "bufferView": 1,
      "byteOffset": 4869720,
      "componentType": 5126,
      "count": 65532,
      "max": [
        27.364593505859375,
        455.60205078125,
        20.890909194946289
      ],
      "min": [
        -20.944040298461914,
        20.225683212280273,
        -30.865516662597656
      ],
      "type": "VEC3"
    },
    {
      "bufferView": 1,
      "byteOffset": 5656104,
      "componentType": 5126,
      "count": 65532,
      "max": [
        0.99998998641967773,
        1,
        0.99849170446395874
      ],
      "min": [
        -0.99999094009399414,
        -1,
        -0.99998927116394043
      ],
      "type": "VEC3"
    },
    {
      "bufferView": 0,
      "byteOffset": 2391132,
      "componentType": 5125,
      "count": 191724,
      "max": [
        65531
      ],
      "min": [
        0
      ],
      "type": "SCALAR"
    },
    {
      "bufferView": 1,
      "byteOffset": 6442488,
      "componentType": 5126,
      "count": 65532,
      "max": [
        12.494250297546387,
        471.219482421875,
        7.8791098594665527
      ],
      "min": [
        -14.661188125610352,
        20.183731079101562,
        -23.322689056396484
      ],
      "type": "VEC3"
    },
    {
      "bufferView": 1,
      "byteOffset": 7228872,
      "componentType": 5126,
      "count": 65532,
      "max": [
        0.99980688095092773,
        1,
        1
      ],
      "min": [
        -0.9987604022026062,
        -1,
        -0.99956333637237549
      ],
      "type": "VEC3"
    },
    {
      "bufferView": 0,
      "byteOffset": 3158028,
      "componentType": 5125,
      "count": 211707,
      "max": [
        65531
      ],
      "min": [
        0
      ],
      "type": "SCALAR"
    },
    {
      "bufferView": 1,
      "byteOffset": 8015256,
      "componentType": 5126,
      "count": 65532,
      "max": [
        38.992008209228516,
        675.92962646484375,
        41.420906066894531
      ],
      "min": [
        -38.991996765136719,
        6.959373950958252,
        -38.863025665283203
      ],
      "type": "VEC3"
    },
    {
      "bufferView": 1,
      "byteOffset": 8801640,
      "componentType": 5126,
      "count": 65532,
      "max": [
        0.9993358850479126,
        1,
        1
      ],
      "min": [
        -0.9993358850479126,
        -1,
        -1
      ],
      "type": "VEC3"
    },
    {
      "bufferView": 0,
      "byteOffset": 4004856,
      "componentType": 5125,
      "count": 210699,
      "max": [
        65531
      ],
      "min": [
        0
      ],
      "type": "SCALAR"
    },
    {
      "bufferView": 1,
      "byteOffset": 9588024,
      "componentType": 5126,
      "count": 65532,
      "max": [
        14.661227226257324,
        557.1405029296875,
        16.930183410644531
      ],
      "min": [
        -11.83006477355957,
        20.225683212280273,
        -38.860588073730469
      ],
      "type": "VEC3"
    },
    {
      "bufferView": 1,
      "byteOffset": 10374408,
      "componentType": 5126,
      "count": 65532,
      "max": [
        0.99920177459716797,
        1,
        0.99823135137557983
      ],
      "min": [
        -0.99977242946624756,
        -1,
        -1
      ],
      "type": "VEC3"
    },
    {
      "bufferView": 0,
      "byteOffset": 4847652,
      "componentType": 5125,
      "count": 192891,
      "max": [
        65531
      ],
      "min": [
        0
      ],
      "type": "SCALAR"
    },
    {
      "bufferView": 1,
      "byteOffset": 11160792,
      "componentType": 5126,
      "count": 65532,
      "max": [
        11.543545722961426,
        548.84295654296875,
        10.681076049804688
      ],
      "min": [
        -11.543605804443359,
        20.225683212280273,
        -13.32935619354248
      ],
      "type": "VEC3"
    },
    {
      "bufferView": 1,
      "byteOffset": 11947176,
      "componentType": 5126,
      "count": 65532,
      "max": [
        0.99975991249084473,
        1,
        1
      ],
      "min": [
        -0.99909341335296631,
        -1,
        -0.99735856056213379
      ],
      "type": "VEC3"
    },
    {
      "bufferView": 0,
      "byteOffset": 5619216,
      "componentType": 5125,
      "count": 194064,
      "max": [
        65531
      ],
      "min": [
        0
      ],
      "type": "SCALAR"
    },
    {
      "bufferView": 1,
      "byteOffset": 12733560,
      "componentType": 5126,
      "count": 65532,
      "max": [
        9.3451633453369141,
        599.677734375,
        10.517610549926758
      ],
      "min": [
        -9.3451642990112305,
        20.212230682373047,
        -13.32935619354248
      ],
      "type": "VEC3"
    },
    {
      "bufferView": 1,
      "byteOffset": 13519944,
      "componentType": 5126,
      "count": 65532,
      "max": [
        0.9991607666015625,
        1,
        1
      ],
      "min": [
        -0.9997246265411377,
        -1,
        -1
      ],
      "type": "VEC3"
    },
    {
      "bufferView": 0,
      "byteOffset": 6395472,
      "componentType": 5125,
      "count": 194100,
      "max": [
        65531
      ],
      "min": [
        0
      ],
      "type": "SCALAR"
    },
    {
      "bufferView": 1,
      "byteOffset": 14306328,
      "componentType": 5126,
      "count": 65100,
      "max": [
        47.908382415771484,
        566.99847412109375,
        30.855022430419922
      ],
      "min": [
        -47.908412933349609,
        20.225683212280273,
        -55.319854736328125
      ],
      "type": "VEC3"
    },
    {
      "bufferView": 1,
      "byteOffset": 15087528,
      "componentType": 5126,
      "count": 65100,
      "max": [
        1,
        1,
        1
      ],
      "min": [
        -1,
        -1,
        -1
      ],
      "type": "VEC3"
    },
    {
      "bufferView": 0,
      "byteOffset": 7171872,
      "componentType": 5125,
      "count": 192018,
      "max": [
        65099
      ],
      "min": [
        0
      ],
      "type": "SCALAR"
    }
  ],
  "asset": {
    "extras": {
      "author": "S.D.C. (https://sketchfab.com/3Duae)",
      "license": "CC-BY-4.0 (http://creativecommons.org/licenses/by/4.0/)",
      "source": "https://sketchfab.com/3d-models/free-burj-khalifa-dubai-c1d6f5884c9c4a56b8d8f9c5555f1902",
      "title": "( FREE ) Burj Khalifa Dubai"
    },
    "generator": "Sketchfab-10.10.1-rc1",
    "version": "2.0"
  },
  "bufferViews": [
    {
      "buffer": 0,
      "byteLength": 7939944,
      "byteOffset": 0,
      "name": "floatBufferViews",
      "target": 34963
    },
    {
      "buffer": 0,
      "byteLength": 15868728,
      "byteOffset": 7939944,
      "byteStride": 12,
      "name": "floatBufferViews",
      "target": 34962
    }
  ],
  "buffers": [
    {
      "byteLength": 23808672,
      "uri": "scene.bin"
    }
  ],
  "materials": [
    {
      "doubleSided": true,
      "emissiveFactor": [
        0,
        0,
        0
      ],
      "name": "Vitres",
      "pbrMetallicRoughness": {
        "baseColorFactor": [
          0.21302772895297931,
          0.28998991704517518,
          0.32582511289594496,
          1
        ],
        "metallicFactor": 0.50028424809538574,
        "roughnessFactor": 0.092912646152162423
      }
    },
    {
      "doubleSided": true,
      "emissiveFactor": [
        0,
        0,
        0
      ],
      "name": "Rebord",
      "pbrMetallicRoughness": {
        "baseColorFactor": [
          0.70760125268926688,
          0.70760125268926688,
          0.70760125268926688,
          1
        ],
        "metallicFactor": 0.66444892350534146,
        "roughnessFactor": 0.08683247298883072
      }
    }
  ],
  "meshes": [
    {
      "primitives": [
        {
          "attributes": {
            "NORMAL": 1,
            "POSITION": 0
          },
          "indices": 2,
          "material": 0,
          "mode": 4
        }
      ]
    },
    {
      "primitives": [
        {
          "attributes": {
            "NORMAL": 4,
            "POSITION": 3
          },
          "indices": 5,
          "material": 1,
          "mode": 4
        }
      ]
    },
    {
      "primitives": [
        {
          "attributes": {
            "NORMAL": 7,
            "POSITION": 6
          },
          "indices": 8,
          "material": 1,
          "mode": 4
        }
      ]
    },
    {
      "primitives": [
        {
          "attributes": {
            "NORMAL": 10,
            "POSITION": 9
          },
          "indices": 11,
          "material": 1,
          "mode": 4
        }
      ]
    },
    {
      "primitives": [
        {
          "attributes": {
            "NORMAL": 13,
            "POSITION": 12
          },
          "indices": 14,
          "material": 1,
          "mode": 4
        }
      ]
    },
    {
      "primitives": [
        {
          "attributes": {
            "NORMAL": 16,
            "POSITION": 15
          },
          "indices": 17,
          "material": 1,
          "mode": 4
        }
      ]
    },
    {
      "primitives": [
        {
          "attributes": {
            "NORMAL": 19,
            "POSITION": 18
          },
          "indices": 20,
          "material": 1,
          "mode": 4
        }
      ]
    },
    {
      "primitives": [
        {
          "attributes": {
            "NORMAL": 22,
            "POSITION": 21
          },
          "indices": 23,
          "material": 1,
          "mode": 4
        }
      ]
    },
    {
      "primitives": [
        {
          "attributes": {
            "NORMAL": 25,
            "POSITION": 24
          },
          "indices": 26,
          "material": 1,
          "mode": 4
        }
      ]
    },
    {
      "primitives": [
        {
          "attributes": {
            "NORMAL": 28,
            "POSITION": 27
          },
          "indices": 29,
          "material": 1,
          "mode": 4
        }
      ]
    },
    {
      "primitives": [
        {
          "attributes": {
            "NORMAL": 31,
            "POSITION": 30
          },
          "indices": 32,
          "material": 1,
          "mode": 4
        }
      ]
    }
  ],
  "nodes": [
    {
      "children": [
        1
      ],
      "name": "RootNode (gltf orientation matrix)",
      "rotation": [
        -0.70710678118654746,
        -0,
        -0,
        0.70710678118654757
      ]
    },
    {
      "children": [
        2
      ],
      "name": "RootNode (model correction matrix)"
    },
    {
      "children": [
        3
      ],
      "name": "root"
    },
    {
      "children": [
        4
      ],
      "matrix": [
        1,
        0,
        0,
        0,
        0,
        2.2204460492503131e-16,
        1,
        0,
        0,
        -1,
        2.2204460492503131e-16,
        0,
        0,
        0,
        0,
        1
      ],
      "name": "GLTF_SceneRootNode"
    },
    {
      "children": [
        5,
        6,
        7,
        8,
        9,
        10,
        11,
        12,
        13,
        14,
        15
      ],
      "matrix": [
        0.14222830533981323,
        0,
        0,
        0,
        0,
        0.14222830533981323,
        0,
        0,
        0,
        0,
        0.14222830533981323,
        0,
        0,
        0,
        0,
        1
      ],
      "name": "Burj_0"
    },
    {
      "mesh": 0,
      "name": ""
    },
    {
      "mesh": 1,
      "name": ""
    },
    {
      "mesh": 2,
      "name": ""
    },
    {
      "mesh": 3,
      "name": ""
    },
    {
      "mesh": 4,
      "name": ""
    },
    {
      "mesh": 5,
      "name": ""
    },
    {
      "mesh": 6,
      "name": ""
    },
    {
      "mesh": 7,
      "name": ""
    },
    {
      "mesh": 8,
      "name": ""
    },
    {
      "mesh": 9,
      "name": ""
    },
    {
      "mesh": 10,
      "name": ""
    }
  ],
  "scene": 0,
  "scenes": [
    {
      "name": "OSG_Scene",
      "nodes": [
        0
      ]
    }
  ]
}

