<svg width="20" height="21" viewBox="0 0 20 21" fill="none" xmlns="http://www.w3.org/2000/svg">
<path fill-rule="evenodd" clip-rule="evenodd" d="M16.6875 3H3.3125C2.86658 3.00671 2.50671 3.36658 2.5 3.8125V17.1875C2.50671 17.6334 2.86658 17.9933 3.3125 18H10.5V12.1875H8.5625V9.9375H10.5V8.25C10.5 6.3125 11.6875 5.25 13.4375 5.25C14.25 5.25 15 5.3125 15.1875 5.3125V7.375H14C13.0625 7.375 12.875 7.8125 12.875 8.5V9.9375H15.125L14.8125 12.1875H12.875V18H16.6875C17.1334 17.9933 17.4933 17.6334 17.5 17.1875V3.8125C17.4933 3.36658 17.1334 3.00671 16.6875 3Z" fill="white"/>
<mask id="mask0" mask-type="alpha" maskUnits="userSpaceOnUse" x="2" y="3" width="16" height="15">
<path fill-rule="evenodd" clip-rule="evenodd" d="M16.6875 3H3.3125C2.86658 3.00671 2.50671 3.36658 2.5 3.8125V17.1875C2.50671 17.6334 2.86658 17.9933 3.3125 18H10.5V12.1875H8.5625V9.9375H10.5V8.25C10.5 6.3125 11.6875 5.25 13.4375 5.25C14.25 5.25 15 5.3125 15.1875 5.3125V7.375H14C13.0625 7.375 12.875 7.8125 12.875 8.5V9.9375H15.125L14.8125 12.1875H12.875V18H16.6875C17.1334 17.9933 17.4933 17.6334 17.5 17.1875V3.8125C17.4933 3.36658 17.1334 3.00671 16.6875 3Z" fill="white"/>
</mask>
<g mask="url(#mask0)">
</g>
</svg>
