<svg width="20" height="21" viewBox="0 0 20 21" fill="none" xmlns="http://www.w3.org/2000/svg">
<path fill-rule="evenodd" clip-rule="evenodd" d="M5.875 18H2.75V7.9375H5.875V18ZM4.3125 6.625C3.31148 6.625 2.5 5.81352 2.5 4.8125C2.5 3.81148 3.31148 3 4.3125 3C5.31352 3 6.125 3.81148 6.125 4.8125C6.125 5.2932 5.93404 5.75422 5.59413 6.09413C5.25422 6.43404 4.7932 6.625 4.3125 6.625ZM17.5 18H14.375V13.125C14.375 11.9375 14.375 10.5 12.75 10.5C11.125 10.5 10.875 11.75 10.875 13.0625V18.0625H7.75V7.9375H10.75V9.375H10.8125C11.3929 8.30874 12.5383 7.67511 13.75 7.75C16.875 7.75 17.5 9.8125 17.5 12.5V18Z" fill="white"/>
<mask id="mask0" mask-type="alpha" maskUnits="userSpaceOnUse" x="2" y="3" width="16" height="16">
<path fill-rule="evenodd" clip-rule="evenodd" d="M5.875 18H2.75V7.9375H5.875V18ZM4.3125 6.625C3.31148 6.625 2.5 5.81352 2.5 4.8125C2.5 3.81148 3.31148 3 4.3125 3C5.31352 3 6.125 3.81148 6.125 4.8125C6.125 5.2932 5.93404 5.75422 5.59413 6.09413C5.25422 6.43404 4.7932 6.625 4.3125 6.625ZM17.5 18H14.375V13.125C14.375 11.9375 14.375 10.5 12.75 10.5C11.125 10.5 10.875 11.75 10.875 13.0625V18.0625H7.75V7.9375H10.75V9.375H10.8125C11.3929 8.30874 12.5383 7.67511 13.75 7.75C16.875 7.75 17.5 9.8125 17.5 12.5V18Z" fill="white"/>
</mask>
<g mask="url(#mask0)">
</g>
</svg>
