<svg width="20" height="21" viewBox="0 0 20 21" fill="none" xmlns="http://www.w3.org/2000/svg">
<path fill-rule="evenodd" clip-rule="evenodd" d="M18.75 5.06251C18.1048 5.38013 17.4046 5.57108 16.6875 5.62501C17.4496 5.18804 18.0104 4.47019 18.25 3.62501C17.5561 4.04421 16.7948 4.34024 16 4.50001C14.9956 3.43425 13.4436 3.08736 12.0811 3.62411C10.7186 4.16086 9.82012 5.47309 9.8125 6.93751C9.8125 7.25001 9.875 7.50001 9.875 7.75001C6.98844 7.63145 4.29637 6.2626 2.5 4.00001C2.17467 4.57153 2.00244 5.21738 2 5.87501C1.98821 7.08829 2.60233 8.22206 3.625 8.87501C3.05699 8.85548 2.50104 8.7058 2 8.43751V8.50001C1.99786 10.2041 3.2029 11.6711 4.875 12C4.56735 12.0723 4.25334 12.1141 3.9375 12.125C3.70656 12.1353 3.4753 12.1143 3.25 12.0625C3.73324 13.5256 5.08457 14.5266 6.625 14.5625C5.35675 15.555 3.79782 16.104 2.1875 16.125C1.89444 16.1353 1.60112 16.1144 1.3125 16.0625C2.9556 17.1127 4.8625 17.6761 6.8125 17.6875C13.4375 17.6875 17 12.1875 17 7.50001V7.06251C17.6651 6.47203 18.253 5.80007 18.75 5.06251Z" fill="white"/>
<mask id="mask0" mask-type="alpha" maskUnits="userSpaceOnUse" x="1" y="3" width="18" height="15">
<path fill-rule="evenodd" clip-rule="evenodd" d="M18.75 5.06251C18.1048 5.38013 17.4046 5.57108 16.6875 5.62501C17.4496 5.18804 18.0104 4.47019 18.25 3.62501C17.5561 4.04421 16.7948 4.34024 16 4.50001C14.9956 3.43425 13.4436 3.08736 12.0811 3.62411C10.7186 4.16086 9.82012 5.47309 9.8125 6.93751C9.8125 7.25001 9.875 7.50001 9.875 7.75001C6.98844 7.63145 4.29637 6.2626 2.5 4.00001C2.17467 4.57153 2.00244 5.21738 2 5.87501C1.98821 7.08829 2.60233 8.22206 3.625 8.87501C3.05699 8.85548 2.50104 8.7058 2 8.43751V8.50001C1.99786 10.2041 3.2029 11.6711 4.875 12C4.56735 12.0723 4.25334 12.1141 3.9375 12.125C3.70656 12.1353 3.4753 12.1143 3.25 12.0625C3.73324 13.5256 5.08457 14.5266 6.625 14.5625C5.35675 15.555 3.79782 16.104 2.1875 16.125C1.89444 16.1353 1.60112 16.1144 1.3125 16.0625C2.9556 17.1127 4.8625 17.6761 6.8125 17.6875C13.4375 17.6875 17 12.1875 17 7.50001V7.06251C17.6651 6.47203 18.253 5.80007 18.75 5.06251Z" fill="white"/>
</mask>
<g mask="url(#mask0)">
</g>
</svg>
