<svg width="18" height="13" viewBox="0 0 18 13" fill="none" xmlns="http://www.w3.org/2000/svg">
<path fill-rule="evenodd" clip-rule="evenodd" d="M16.875 1.25C17.2325 1.77439 17.4675 2.37249 17.5625 3C17.6776 3.93325 17.7402 4.87223 17.75 5.8125V7.125C17.7402 8.06527 17.6776 9.00425 17.5625 9.9375C17.4775 10.5677 17.2417 11.168 16.875 11.6875C16.3987 12.1365 15.7787 12.4022 15.125 12.4375C12.6875 12.625 9 12.625 9 12.625C9 12.625 4.4375 12.5625 3.0625 12.4375C2.3488 12.4219 1.66316 12.1565 1.125 11.6875C0.767488 11.1631 0.532521 10.565 0.4375 9.9375C0.319226 9.00455 0.256615 8.06539 0.25 7.125V5.8125C0.259808 4.87223 0.322406 3.93325 0.4375 3C0.522469 2.36983 0.758317 1.76949 1.125 1.25C1.57455 0.76828 2.21777 0.515588 2.875 0.5625C5.3125 0.375 9 0.375 9 0.375C9 0.375 12.6875 0.375 15.125 0.5C15.7787 0.535267 16.3987 0.800988 16.875 1.25ZM11.9375 6.25L7.1875 3.8125V8.75L11.9375 6.25Z" fill="white"/>
</svg>
