{
   "accessors" : [
      {
         "bufferView" : 0,
         "byteOffset" : 0,
         "componentType" : 5123,
         "count" : 145329,
         "max" : [ 38342 ],
         "min" : [ 0 ],
         "name" : "buffer-0-group-0-mesh-0-indices",
         "type" : "SCALAR"
      },
      {
         "bufferView" : 2,
         "byteOffset" : 0,
         "componentType" : 5126,
         "count" : 38343,
         "max" : [ 0.6400349736213684, 6.95114803314209, 0.6400349736213684 ],
         "min" : [ -0.6400349736213684, -0.46875, -0.6400349736213684 ],
         "name" : "buffer-0-group-0-mesh-0-position",
         "type" : "VEC3"
      },
      {
         "bufferView" : 2,
         "byteOffset" : 460116,
         "componentType" : 5126,
         "count" : 38343,
         "max" : [ 1, 1, 1 ],
         "min" : [ -1, -1, -1 ],
         "name" : "buffer-0-group-0-mesh-0-normal",
         "type" : "VEC3"
      },
      {
         "bufferView" : 1,
         "byteOffset" : 0,
         "componentType" : 5126,
         "count" : 38343,
         "max" : [ 1, 0 ],
         "min" : [ 0, -1 ],
         "name" : "buffer-0-group-0-mesh-0-texcoord",
         "type" : "VEC2"
      },
      {
         "bufferView" : 0,
         "byteOffset" : 290658,
         "componentType" : 5123,
         "count" : 27072,
         "max" : [ 6922 ],
         "min" : [ 0 ],
         "name" : "buffer-0-group-1-mesh-0-indices",
         "type" : "SCALAR"
      },
      {
         "bufferView" : 2,
         "byteOffset" : 920232,
         "componentType" : 5126,
         "count" : 6923,
         "max" : [ 0.6320000290870667, 7.992897987365723, 0.6320000290870667 ],
         "min" : [ -0.6320000290870667, -0.449999988079071, -0.6320000290870667 ],
         "name" : "buffer-0-group-1-mesh-0-position",
         "type" : "VEC3"
      },
      {
         "bufferView" : 2,
         "byteOffset" : 1003308,
         "componentType" : 5126,
         "count" : 6923,
         "max" : [ 1, 1, 1 ],
         "min" : [ -1, -1, -1 ],
         "name" : "buffer-0-group-1-mesh-0-normal",
         "type" : "VEC3"
      },
      {
         "bufferView" : 1,
         "byteOffset" : 306744,
         "componentType" : 5126,
         "count" : 6923,
         "max" : [ 1, 0 ],
         "min" : [ 0, -1 ],
         "name" : "buffer-0-group-1-mesh-0-texcoord",
         "type" : "VEC2"
      },
      {
         "bufferView" : 0,
         "byteOffset" : 344802,
         "componentType" : 5123,
         "count" : 9390,
         "max" : [ 2661 ],
         "min" : [ 0 ],
         "name" : "buffer-0-group-2-mesh-0-indices",
         "type" : "SCALAR"
      },
      {
         "bufferView" : 2,
         "byteOffset" : 1086384,
         "componentType" : 5126,
         "count" : 2662,
         "max" : [ 0.6000000238418579, 7.000357151031494, 0.6000000238418579 ],
         "min" : [ -0.6000000238418579, -0.449999988079071, -0.6000000238418579 ],
         "name" : "buffer-0-group-2-mesh-0-position",
         "type" : "VEC3"
      },
      {
         "bufferView" : 2,
         "byteOffset" : 1118328,
         "componentType" : 5126,
         "count" : 2662,
         "max" : [ 1, 0.6860010027885437, 1 ],
         "min" : [ -1, -0.6859970092773438, -1 ],
         "name" : "buffer-0-group-2-mesh-0-normal",
         "type" : "VEC3"
      },
      {
         "bufferView" : 1,
         "byteOffset" : 362128,
         "componentType" : 5126,
         "count" : 2662,
         "max" : [ 1, 0 ],
         "min" : [ 0, -1 ],
         "name" : "buffer-0-group-2-mesh-0-texcoord",
         "type" : "VEC2"
      },
      {
         "bufferView" : 0,
         "byteOffset" : 363582,
         "componentType" : 5123,
         "count" : 4992,
         "max" : [ 1584 ],
         "min" : [ 0 ],
         "name" : "buffer-0-group-3-mesh-0-indices",
         "type" : "SCALAR"
      },
      {
         "bufferView" : 2,
         "byteOffset" : 1150272,
         "componentType" : 5126,
         "count" : 1585,
         "max" : [ 0.6000000238418579, 7.000357151031494, 0.6000000238418579 ],
         "min" : [ -0.6000000238418579, 0, -0.6000000238418579 ],
         "name" : "buffer-0-group-3-mesh-0-position",
         "type" : "VEC3"
      },
      {
         "bufferView" : 2,
         "byteOffset" : 1169292,
         "componentType" : 5126,
         "count" : 1585,
         "max" : [ 1, 9.999999974752427e-07, 1 ],
         "min" : [ -1, -0.6859999895095825, -1 ],
         "name" : "buffer-0-group-3-mesh-0-normal",
         "type" : "VEC3"
      },
      {
         "bufferView" : 1,
         "byteOffset" : 383424,
         "componentType" : 5126,
         "count" : 1585,
         "max" : [ 1, 0 ],
         "min" : [ 0, -1 ],
         "name" : "buffer-0-group-3-mesh-0-texcoord",
         "type" : "VEC2"
      },
      {
         "bufferView" : 0,
         "byteOffset" : 373566,
         "componentType" : 5123,
         "count" : 5436,
         "max" : [ 1695 ],
         "min" : [ 0 ],
         "name" : "buffer-0-group-4-mesh-0-indices",
         "type" : "SCALAR"
      },
      {
         "bufferView" : 2,
         "byteOffset" : 1188312,
         "componentType" : 5126,
         "count" : 1696,
         "max" : [ 0.6400349736213684, 0.07500000298023224, 0.6400349736213684 ],
         "min" : [ -0.6400349736213684, -0.46875, -0.6400349736213684 ],
         "name" : "buffer-0-group-4-mesh-0-position",
         "type" : "VEC3"
      },
      {
         "bufferView" : 2,
         "byteOffset" : 1208664,
         "componentType" : 5126,
         "count" : 1696,
         "max" : [ 1, 1.999999994950485e-06, 1 ],
         "min" : [ -1, -0.8000010251998901, -1 ],
         "name" : "buffer-0-group-4-mesh-0-normal",
         "type" : "VEC3"
      },
      {
         "bufferView" : 1,
         "byteOffset" : 396104,
         "componentType" : 5126,
         "count" : 1696,
         "max" : [ 1, 7.000000096013537e-06 ],
         "min" : [ -7.000000096013537e-06, -1 ],
         "name" : "buffer-0-group-4-mesh-0-texcoord",
         "type" : "VEC2"
      }
   ],
   "asset" : {
      "generator" : "Obj2GltfConverter",
      "version" : "2.0"
   },
   "bufferViews" : [
      {
         "buffer" : 0,
         "byteLength" : 384438,
         "byteOffset" : 0,
         "byteStride" : 0,
         "name" : "buffer-0-bufferview-ushort",
         "target" : 34963
      },
      {
         "buffer" : 0,
         "byteLength" : 409672,
         "byteOffset" : 384440,
         "byteStride" : 8,
         "name" : "buffer-0-bufferview-vec2",
         "target" : 34962
      },
      {
         "buffer" : 0,
         "byteLength" : 1229016,
         "byteOffset" : 794112,
         "byteStride" : 12,
         "name" : "buffer-0-bufferview-vec3",
         "target" : 34962
      },
      {
         "buffer" : 0,
         "byteLength" : 1,
         "byteOffset" : 0,
         "name" : "buffer-0-bufferview-vec4"
      }
   ],
   "buffers" : [
      {
         "byteLength" : 2023128,
         "name" : "buffer-0",
         "uri" : "bank of china tower.bin"
      }
   ],
   "materials" : [
      {
         "alphaMode" : "OPAQUE",
         "doubleSided" : true,
         "name" : "",
         "pbrMetallicRoughness" : {
            "baseColorFactor" : [ 1, 1, 1, 1 ],
            "metallicFactor" : 0,
            "roughnessFactor" : 0.9699476628648295
         }
      },
      {
         "alphaMode" : "OPAQUE",
         "doubleSided" : true,
         "name" : "phongE1SG",
         "pbrMetallicRoughness" : {
            "baseColorFactor" : [ 0.34, 0.34, 0.34, 1 ],
            "metallicFactor" : 0,
            "roughnessFactor" : 0.9699476628648295
         }
      },
      {
         "alphaMode" : "OPAQUE",
         "doubleSided" : true,
         "name" : "blinn1SG",
         "pbrMetallicRoughness" : {
            "baseColorFactor" : [ 0.12, 0.2, 0.3, 1 ],
            "metallicFactor" : 0,
            "roughnessFactor" : 0.9699476628648295
         }
      },
      {
         "alphaMode" : "OPAQUE",
         "doubleSided" : true,
         "name" : "blinn2SG",
         "pbrMetallicRoughness" : {
            "baseColorFactor" : [ 0.97, 0.97, 0.97, 1 ],
            "metallicFactor" : 0,
            "roughnessFactor" : 0.9699476628648295
         }
      },
      {
         "alphaMode" : "OPAQUE",
         "doubleSided" : true,
         "name" : "phong1SG",
         "pbrMetallicRoughness" : {
            "baseColorFactor" : [ 0.9399999999999999, 0.91, 0.89, 1 ],
            "metallicFactor" : 0,
            "roughnessFactor" : 0.9465359392711767
         }
      }
   ],
   "meshes" : [
      {
         "name" : "buffer-0-mesh-0",
         "primitives" : [
            {
               "attributes" : {
                  "NORMAL" : 2,
                  "POSITION" : 1,
                  "TEXCOORD_0" : 3
               },
               "indices" : 0,
               "material" : 0,
               "mode" : 4
            },
            {
               "attributes" : {
                  "NORMAL" : 6,
                  "POSITION" : 5,
                  "TEXCOORD_0" : 7
               },
               "indices" : 4,
               "material" : 1,
               "mode" : 4
            },
            {
               "attributes" : {
                  "NORMAL" : 10,
                  "POSITION" : 9,
                  "TEXCOORD_0" : 11
               },
               "indices" : 8,
               "material" : 2,
               "mode" : 4
            },
            {
               "attributes" : {
                  "NORMAL" : 14,
                  "POSITION" : 13,
                  "TEXCOORD_0" : 15
               },
               "indices" : 12,
               "material" : 3,
               "mode" : 4
            },
            {
               "attributes" : {
                  "NORMAL" : 18,
                  "POSITION" : 17,
                  "TEXCOORD_0" : 19
               },
               "indices" : 16,
               "material" : 4,
               "mode" : 4
            }
         ]
      }
   ],
   "nodes" : [
      {
         "mesh" : 0,
         "name" : "node-0"
      }
   ],
   "scenes" : [
      {
         "name" : "scene-0",
         "nodes" : [ 0 ]
      }
   ]
}
